<svg width="100%" height="100%" id="svg" viewBox="0 0 1440 390" xmlns="http://www.w3.org/2000/svg" class="transition duration-300 ease-in-out delay-150"><defs><linearGradient id="gradient" x1="0%" y1="50%" x2="100%" y2="50%"><stop offset="5%" stop-color="#0693e3"></stop><stop offset="95%" stop-color="#8ed1fc"></stop></linearGradient></defs><path d="M 0,400 C 0,400 0,200 0,200 C 73.6386121607695,212.53727241497768 147.277224321539,225.07454482995533 219,239 C 290.722775678461,252.92545517004467 360.5297148746136,268.23909309515636 424,260 C 487.4702851253864,251.76090690484367 544.6039161800069,219.96908278941942 614,215 C 683.3960838199931,210.03091721058058 765.0546204053588,231.88457574716594 835,223 C 904.9453795946412,214.11542425283406 963.1776021985575,174.49261422191685 1034,167 C 1104.8223978014425,159.50738577808315 1188.2349708004122,184.14496736516662 1258,195 C 1327.7650291995878,205.85503263483338 1383.882514599794,202.9275163174167 1440,200 C 1440,200 1440,400 1440,400 Z" stroke="none" stroke-width="0" fill="url(#gradient)" fill-opacity="1" class="transition-all duration-300 ease-in-out delay-150 path-0"></path></svg>
